<svg width="16" height="16" viewBox="0 0 16 16" fill="none" xmlns="http://www.w3.org/2000/svg">
<path d="M14.5 7.98438C14.5 5.67188 13.25 3.54688 11.25 2.35938C9.21875 1.20312 6.75 1.20312 4.75 2.35938C2.71875 3.54688 1.5 5.67188 1.5 7.98438C1.5 10.3281 2.71875 12.4531 4.75 13.6406C6.75 14.7969 9.21875 14.7969 11.25 13.6406C13.25 12.4531 14.5 10.3281 14.5 7.98438ZM0 7.98438C0 5.14062 1.5 2.51562 4 1.07812C6.46875 -0.359375 9.5 -0.359375 12 1.07812C14.4688 2.51562 16 5.14062 16 7.98438C16 10.8594 14.4688 13.4844 12 14.9219C9.5 16.3594 6.46875 16.3594 4 14.9219C1.5 13.4844 0 10.8594 0 7.98438ZM5.53125 9.95312C6 10.4531 6.8125 10.9844 8 10.9844C9.15625 10.9844 9.96875 10.4531 10.4375 9.95312C10.7188 9.64062 11.1875 9.60938 11.5 9.89062C11.8125 10.1719 11.8125 10.6406 11.5312 10.9531C10.8438 11.7031 9.65625 12.4844 8 12.4844C6.3125 12.4844 5.125 11.7031 4.4375 10.9531C4.15625 10.6406 4.1875 10.1719 4.46875 9.89062C4.78125 9.60938 5.25 9.64062 5.53125 9.95312ZM4.5 6.48438C4.5 5.95312 4.9375 5.48438 5.5 5.48438C6.0625 5.48438 6.5 5.95312 6.5 6.48438C6.5 7.04688 6.0625 7.48438 5.5 7.48438C4.9375 7.48438 4.5 7.04688 4.5 6.48438ZM10.5 5.48438C11.0625 5.48438 11.5 5.95312 11.5 6.48438C11.5 7.04688 11.0625 7.48438 10.5 7.48438C9.9375 7.48438 9.5 7.04688 9.5 6.48438C9.5 5.95312 9.9375 5.48438 10.5 5.48438Z" fill="black"/>
</svg>
