<svg id="Layer_1" xmlns="http://www.w3.org/2000/svg" viewBox="0 0 200 50" height="50px" width="200px"><style>.st0{fill:#FFFFFF;}</style><path class="st0" d="M72.6 35c-.4 0-.8-.3-.9-.7-.2-.5.1-1.1.6-1.3l11-4 5-17.9-17.9 5-4 11c-.2.5-.8.8-1.3.6-.5-.2-.8-.8-.6-1.3L68.7 15c.1-.3.4-.5.7-.6l20.1-5.6c.3-.1.7 0 1 .3.3.3.4.6.3 1l-5.8 20c-.1.3-.3.6-.6.7L72.9 35h-.3z"/><path class="st0" d="M76.7 26.7c-1.1 0-2.1-.4-2.8-1.2-1.6-1.6-1.5-4.1 0-5.7.8-.8 1.8-1.2 2.9-1.2 1.1 0 2.1.4 2.8 1.2 1.6 1.6 1.5 4.1 0 5.7-.8.8-1.8 1.2-2.9 1.2zm.1-6c-.5 0-1.1.2-1.4.6-.8.8-.8 2.1 0 2.8.8.8 2.1.7 2.8 0 .8-.8.8-2.1 0-2.8-.4-.4-.9-.6-1.4-.6zM83.7 16.7c-.3 0-.5-.1-.7-.3-.4-.4-.4-1 0-1.4l6-6c.4-.4 1-.4 1.4 0 .4.4.4 1 0 1.4l-6 6c-.2.2-.4.3-.7.3zM72.1 40.7c-.9 0-1.8-.4-2.5-1l-9.9-9.9c-1.4-1.4-1.4-3.6 0-5 1.3-1.3 3.7-1.3 5 0l9.9 9.9c.7.7 1 1.6 1 2.5 0 .9-.4 1.8-1 2.5s-1.5 1-2.5 1zm-9.8-14.9c-.4 0-.8.2-1.1.5-.6.6-.6 1.6 0 2.2l9.9 9.9c.6.6 1.6.6 2.2 0 .3-.3.5-.7.5-1.1 0-.4-.2-.8-.5-1.1l-9.9-9.9c-.3-.4-.7-.5-1.1-.5z"/><g><path class="st0" d="M31.7 39.7h-14c-2.8 0-5-2.2-5-5v-20c0-2.8 2.2-5 5-5h10c.6 0 1 .4 1 1s-.4 1-1 1h-10c-1.7 0-3 1.3-3 3v20c0 1.7 1.3 3 3 3h14c1.7 0 3-1.3 3-3v-16c0-.6.4-1 1-1s1 .4 1 1v16c0 2.8-2.2 5-5 5zM35.7 19.7h-8c-.6 0-1-.4-1-1v-8c0-.4.2-.8.6-.9.4-.2.8-.1 1.1.2l8 8c.3.3.4.7.2 1.1-.1.4-.5.6-.9.6zm-7-2h4.6l-4.6-4.6v4.6z"/><path class="st0" d="M29.7 24.7h-10c-.6 0-1-.4-1-1s.4-1 1-1h10c.6 0 1 .4 1 1s-.4 1-1 1zM29.7 28.7h-10c-.6 0-1-.4-1-1s.4-1 1-1h10c.6 0 1 .4 1 1s-.4 1-1 1z"/><g><path class="st0" d="M29.7 32.7h-10c-.6 0-1-.4-1-1s.4-1 1-1h10c.6 0 1 .4 1 1s-.4 1-1 1z"/></g></g><g><circle class="st0" cx="113.7" cy="14.8" r="1"/><circle class="st0" cx="116.7" cy="14.8" r="1"/><circle class="st0" cx="119.7" cy="14.8" r="1"/><path class="st0" d="M135.7 38.8h-22c-2.8 0-5-2.2-5-5v-18c0-2.8 2.2-5 5-5h22c2.8 0 5 2.2 5 5v18c0 2.7-2.2 5-5 5zm-22-26c-1.7 0-3 1.3-3 3v18c0 1.7 1.3 3 3 3h22c1.7 0 3-1.3 3-3v-18c0-1.7-1.3-3-3-3h-22z"/><path class="st0" d="M139.7 18.8h-30c-.6 0-1-.4-1-1s.4-1 1-1h30c.6 0 1 .4 1 1 0 .5-.4 1-1 1zM135.7 34.8h-8c-.6 0-1-.4-1-1v-12c0-.6.4-1 1-1h8c.6 0 1 .4 1 1v12c0 .5-.4 1-1 1zm-7-2h6v-10h-6v10zM119.7 22.8h-6c-.6 0-1-.4-1-1s.4-1 1-1h6c.6 0 1 .4 1 1 0 .5-.4 1-1 1z"/><path class="st0" d="M123.7 38.8c-.6 0-1-.4-1-1v-20c0-.6.4-1 1-1s1 .4 1 1v19.9c0 .6-.4 1.1-1 1.1zM119.7 26.8h-6c-.6 0-1-.4-1-1s.4-1 1-1h6c.6 0 1 .4 1 1 0 .5-.4 1-1 1zM119.7 34.8h-6c-.6 0-1-.4-1-1s.4-1 1-1h6c.6 0 1 .4 1 1s-.4 1-1 1zM119.7 30.8h-6c-.6 0-1-.4-1-1s.4-1 1-1h6c.6 0 1 .4 1 1 0 .5-.4 1-1 1z"/></g><g><path class="st0" d="M163.2 16.2c-.8 0-1.6-.3-2.1-.9l-2.1-2.1c-.4-.4-.4-1 0-1.4l2.8-2.8c.4-.4 1-.4 1.4 0l2.1 2.1c1.2 1.2 1.2 3.1 0 4.2-.5.6-1.3.9-2.1.9zm-2.1-3.6l1.4 1.4c.4.4 1 .4 1.4 0 .4-.4.4-1 0-1.4l-1.4-1.4-1.4 1.4zM186.7 40.7c-1.1 0-2.1-.4-2.8-1.2l-8.5-8.5c-.4-.4-.4-1 0-1.4l4.2-4.2c.4-.4 1-.4 1.4 0l8.5 8.5c.8.8 1.2 1.8 1.2 2.8 0 1.1-.4 2.1-1.2 2.8-.7.8-1.7 1.2-2.8 1.2zm-9.2-10.3l7.8 7.8c.8.8 2.1.8 2.8 0 .4-.4.6-.9.6-1.4 0-.5-.2-1-.6-1.4l-7.8-7.8-2.8 2.8zM171.6 22.6c-.3 0-.5-.1-.7-.3l-6.7-6.7c-.4-.4-.4-1 0-1.4.4-.4 1-.4 1.4 0l6.7 6.7c.4.4.4 1 0 1.4-.2.2-.5.3-.7.3z"/><g><circle class="st0" cx="164.7" cy="34.7" r="2"/><path class="st0" d="M181.7 26.7c-.7 0-1.4-.1-2-.2-.5-.1-.9-.7-.7-1.2.1-.5.7-.9 1.2-.7.5.1 1.1.2 1.6.2 3.9 0 7-3.1 7-7v-.1l-.3.3c-.9.9-2.1 1.4-3.5 1.4s-2.5-.5-3.5-1.4c-1.9-1.9-1.9-5 0-6.9l.3-.3c-3.9 0-7.1 3.1-7.1 7 0 .5.1 1 .2 1.6.1.5-.2 1.1-.8 1.2-.5.1-1.1-.2-1.2-.8-.2-.7-.2-1.4-.2-2 0-5 4-9 9-9 .8 0 1.7.1 2.5.4.3.1.6.4.7.7.1.3 0 .7-.3 1l-1.7 1.7c-1.1 1.1-1.1 3 0 4.1 1.1 1.1 3 1.1 4.1 0l1.7-1.7c.2-.3.6-.4 1-.3.3.1.6.4.7.7.2.8.4 1.6.4 2.5-.1 4.8-4.1 8.8-9.1 8.8zM164.7 40.7c-1.6 0-3.1-.6-4.2-1.8-1.1-1.1-1.8-2.6-1.8-4.2s.6-3.1 1.8-4.2l12.8-11.7c.4-.4 1-.3 1.4.1.4.4.3 1-.1 1.4L161.9 32c-.7.7-1.1 1.7-1.1 2.8 0 1.1.4 2.1 1.2 2.8 1.5 1.5 4.1 1.5 5.7 0l11.6-12.7c.4-.4 1-.4 1.4-.1.4.4.4 1 .1 1.4L169 38.9c-1.2 1.2-2.7 1.8-4.3 1.8z"/></g></g></svg>