<svg id="Layer_1" xmlns="http://www.w3.org/2000/svg" viewBox="0 0 200 50" height="50px" width="200px"><style>.st0{fill:#FFFFFF;}</style><title>service-sprite</title><g id="Icons"><g id="service-sprite"><path id="development-icon" class="st0" d="M167.1 21.6l4.1 4.1c.1.1.3.2.4.2.2 0 .3-.1.4-.2.2-.2.2-.6 0-.8l-4.4-4.4c-.2-.2-.4-.2-.7-.1-2 .9-4.2.5-5.6-.8-1.2-1.2-1.6-2.9-1.1-4.7l2.9 2.9c.2.2.4.2.6.1l2.7-1c.2-.1.3-.2.4-.4l1-2.6c.1-.2 0-.5-.1-.6l-2.9-2.9c1.7-.4 3.5 0 4.7 1.1 1.4 1.4 1.7 3.6.8 5.6-.1.2 0 .5.1.7l4.4 4.4c.2.2.6.2.8 0 .2-.2.2-.6 0-.8l-4.1-4.1c.9-2.4.4-4.9-1.2-6.5-1.7-1.7-4.4-2.1-6.9-1.1-.2.1-.3.2-.4.4 0 .2 0 .4.2.5l3.3 3.3-.8 2-2 .8-3.3-3.3c-.1-.1-.3-.2-.5-.2s-.4.2-.4.4c-1 2.5-.6 5.1 1.1 6.9 1.7 1.5 4.2 2 6.5 1.1zm3 9.1l14.1-14.1.5.5c.1.1.3.2.4.2.2 0 .3-.1.4-.2l3.4-3.8c.2-.2.2-.6 0-.8l-1.5-1.5c-.2-.2-.6-.2-.8 0l-3.8 3.4c-.1.1-.2.3-.2.4 0 .2.1.3.2.4l.5.5-14.1 14.1-2.1-2.1c-.2-.2-.6-.2-.8 0L159 35c-1.3 1.3-1.3 3.4 0 4.6l1.3 1.3c.6.6 1.4 1 2.3 1 .9 0 1.7-.3 2.3-1l7.3-7.3c.1-.1.2-.3.2-.4 0-.2-.1-.3-.2-.4l-2.1-2.1zm17-18.4l.7.7-2.6 2.9-.9-.9 2.8-2.7zm-23 27.9c-.8.8-2.2.8-3 0l-1.3-1.3c-.8-.8-.8-2.1 0-2.9l4.5-4.5 4.3 4.3-4.5 4.4zm5.4-5.4l-4.3-4.3 1.5-1.5 4.3 4.3-1.5 1.5zm20.8-4.2c-1.6-1.6-4.2-2.1-6.5-1.2l-5.1-5c-.2-.2-.6-.2-.8 0-.2.2-.2.6 0 .8l5.3 5.3c.2.2.4.2.7.1 2-.9 4.2-.5 5.6.8 1.2 1.2 1.6 2.9 1.1 4.7l-2.9-2.9c-.2-.2-.4-.2-.6-.1l-2.6 1c-.2.1-.3.2-.4.4l-1 2.6c-.1.2 0 .5.1.6l2.9 2.9c-1.7.4-3.5 0-4.7-1.1-1.4-1.4-1.7-3.6-.8-5.6.1-.2 0-.5-.1-.7l-5.3-5.3c-.2-.2-.6-.2-.8 0-.2.2-.2.6 0 .8l5.1 5c-.9 2.4-.4 4.9 1.2 6.5 1.1 1.1 2.6 1.7 4.2 1.7.9 0 1.8-.2 2.7-.6.2-.1.3-.2.4-.4 0-.2 0-.4-.2-.5l-3.3-3.3.8-2 2-.7 3.3 3.3c.1.1.3.2.5.2s.4-.2.4-.4c1-2.5.6-5.2-1.2-6.9z"/><path id="interface-icon" class="st0" d="M130.4 38.7c-.3-.2-.8-.5-1.1-.7-.1-.4-.2-2-.3-3.3 0-.3-.2-.6-.6-.5-.3 0-.6.3-.5.6.1 1.6.2 3.6.5 4 .3.4.9.7 1.5 1 .1 0 .1 0 .1.1v.1h-10v-.1-.1l.1-.1c.5-.3 1.1-.6 1.5-1 .3-.3.4-1.6.5-4 0-.3-.2-.6-.5-.6s-.6.2-.6.5c0 1.4-.2 3-.3 3.4-.3.3-.8.6-1.1.7l-.1.1c-.1.1-.2.1-.2.2-.2.2-.4.5-.2 1.3.3.7.7.8 1 .8h10.2c.4 0 .8-.3 1-.7.2-.4.2-1-.2-1.3-.3-.2-.4-.3-.7-.4zM140 9h-30c-.6 0-1 .4-1 1v20.2c0 .5.4 1 1 1h30c.5 0 1-.4 1-1V10c0-.6-.4-1-1-1zm-29.9 1.1h29.7V30h-29.7V10.1z"/><path id="branding-icon" class="st0" d="M70.1 32.8v2.5c0 .3.2.5.5.5s.5-.2.5-.5v-2.7c0-.1 0-.3-.1-.4l-5-5.4 9.2-15.6v10.1c-.8.2-1.4 1-1.4 1.8 0 1.1.8 1.9 1.9 1.9 1 0 1.9-.9 1.9-1.9 0-.9-.6-1.6-1.4-1.8v-10l9.2 15.6-4.8 5.4c-.1.1-.1.2-.1.3v2.7c0 .3.2.5.5.5s.5-.2.5-.5v-2.5l4.9-5.5c.1-.2.2-.4.1-.6L76.1 9.2c-.2-.3-.7-.3-.9 0L64.9 26.7c-.1.2-.1.4.1.6l5.1 5.5zm5.6-10.4c.5 0 .9.4.9.9s-.4.9-.9.9-.9-.4-.9-.9.4-.9.9-.9zm10.7 14.9c0-.2-.3-.4-.5-.4H65.1c-.2 0-.4.2-.5.4l-.6 3.1c0 .2 0 .3.1.4.1.1.2.2.4.2h22c.2 0 .3-.1.4-.2.1-.1.1-.3.1-.4l-.6-3.1zM65.1 40l.4-2h19.9l.4 2H65.1z"/><path id="research-icon" class="st0" d="M12.2 28.5h11c.3 0 .6-.3.6-.6s-.3-.6-.6-.6h-11c-.3 0-.6.3-.6.6s.2.6.6.6zm7.6-18.3h10c1.2 0 2.1.9 2.1 2.1 0 .3.3.6.6.6s.6-.3.6-.6C33 10.4 31.6 9 29.7 9h-10c-.3 0-.6.3-.6.6s.3.6.7.6zm-7.6 22.5h11c.3 0 .6-.3.6-.6s-.3-.6-.6-.6h-11c-.3 0-.6.3-.6.6 0 .4.2.6.6.6zm0 4.3h17.6c.3 0 .6-.3.6-.6s-.3-.6-.6-.6H12.2c-.3 0-.6.3-.6.6s.2.6.6.6zm20.3-7.1c-.3 0-.6.3-.6.6v7.1c0 1.2-1 2.1-2.1 2.1H12.4c-1.2 0-2.1-1-2.1-2.1V19.9c0-.3-.3-.6-.6-.6s-.6.3-.6.6v17.7c0 1.9 1.5 3.4 3.4 3.4h17.4c1.8 0 3.3-1.5 3.3-3.4v-7.1c-.1-.3-.4-.6-.7-.6zm-9.3-6.8h-11c-.3 0-.6.3-.6.6s.3.6.6.6h11c.3 0 .6-.3.6-.6 0-.4-.3-.6-.6-.6zM9.6 19h6.1c1.7 0 3.2-1.4 3.2-3.2V9.6c0-.2-.1-.5-.4-.6-.2 0-.5 0-.7.2L9.2 18c-.2.2-.2.4-.2.6.1.3.4.4.6.4zm8.1-7.9v4.8c0 1.1-.9 2-1.9 2H11l6.7-6.8zm20.4 2.1c-1.5-1-2.5-1.4-3.4-1.4-.7 0-1.3.3-1.8 1 0 0-.1.1-.1.2-.1.2-.4.5-.6.8L25 24.3l-.2.2c-.1.1-.1.2-.1.3l-.4 7c0 .2.1.4.2.5.1.1.2.1.4.1h.2L32 30c.1 0 .2-.1.3-.2l7.1-10.3 1.1-1.6c1.4-1.8-.4-3.3-2.4-4.7zM25.6 31v-.5l.5.3-.5.2zm1.9-.7L25.7 29l.2-3.5c.5.2 1 .6 1.2 1.1.1.2.2.3.5.4 0 0 1.1.2 1.5 1.2.1.2.3.4.5.4 0 0 .6.1 1.3.6l-3.4 1.1zm4.3-1.8c-.7-.7-1.4-.9-1.8-1.1-.5-.9-1.4-1.4-1.9-1.5-.4-.8-1.2-1.3-1.7-1.5l6.5-9.5.2-.2c.9.1 2.1.6 3.2 1.4 1.1.8 2.1 1.7 2.5 2.5l-7 9.9zm7.8-11.2l-.2.3c-.6-.8-1.5-1.6-2.5-2.4-1-.7-2.1-1.2-3.1-1.5l.2-.2c.2-.3.5-.5.8-.5.6 0 1.5.4 2.7 1.2 2.6 1.9 2.5 2.5 2.1 3.1z"/></g></g></svg>