<?xml version="1.0" encoding="utf-8"?>
<!-- Generator: Adobe Illustrator 18.1.1, SVG Export Plug-In . SVG Version: 6.00 Build 0)  -->
<!DOCTYPE svg PUBLIC "-//W3C//DTD SVG 1.1//EN" "http://www.w3.org/Graphics/SVG/1.1/DTD/svg11.dtd">
<svg version="1.1" id="Layer_1" xmlns="http://www.w3.org/2000/svg" xmlns:xlink="http://www.w3.org/1999/xlink" x="0px" y="0px"
	 viewBox="0 0 87.5 15.5" enable-background="new 0 0 87.5 15.5" xml:space="preserve">
<path fill="#D1D1D2" d="M9.8,14.9c0,0-0.1,0-0.1,0c-0.1,0-0.1-0.1-0.1-0.1c0-0.1,0.1-0.1,0.1-0.1c1.2,0,1.8-0.4,2-0.5v-0.4
	c0-0.1,0-0.1,0.1-0.1H14V9.8l-1.4-1.2v2.6c0,0,0,0.1,0,0.1c0,0-0.1,0-0.1,0c0,0-0.8-0.1-0.8-1.2V7.6c0-4.9-1.8-7-2-7.1H9.4
	C9.2,0.7,7.4,2.7,7.4,7.6v0.6c0,0,0,0.1,0,0.1l-2.2,2.2v2.3l2.2,0.3c0.1,0,0.1,0.1,0.1,0.1c0,0.1-0.1,0.1-0.1,0.1L5,13
	c-0.1,0-0.1-0.1-0.1-0.1v-2.5c0,0,0-0.1,0-0.1l2.2-2.2V7.6c0-5.1,2-7.3,2.3-7.3h0.2c0.3,0,2.2,2.2,2.2,7.3v2.6
	c0,0.6,0.3,0.8,0.5,0.9V8.4c0,0,0-0.1,0.1-0.1c0,0,0.1,0,0.1,0l1.7,1.4c0,0,0,0.1,0,0.1v4.1c0,0.1,0,0.1-0.1,0.1h-2.2v0.3
	c0,0,0,0.1,0,0.1C11.8,14.4,11.1,14.9,9.8,14.9"/>
<path fill="#D1D1D2" d="M7.2,15.2C7.2,15.2,7.2,15.2,7.2,15.2c-0.1-0.1-0.1-0.1-0.1-0.1v-1.9c0-0.1,0-0.1,0.1-0.1
	c0.1,0,0.1,0,0.1,0.1V15l0.3,0l1.1-0.8V9.7L8.5,9.6l-0.8,2.1c0,0.1-0.1,0.1-0.1,0.1c-0.1,0-0.1-0.1-0.1-0.1l0.9-2.2
	c0-0.1,0.1-0.1,0.1-0.1l0.4,0.1C9,9.5,9,9.6,9,9.6v4.6c0,0,0,0.1,0,0.1l-1.2,0.9c0,0,0,0-0.1,0L7.2,15.2L7.2,15.2z"/>
<polygon fill="#D1D1D2" points="17.4,13.9 17.4,6.9 18.6,6.9 18.6,12.8 21.1,12.8 21.1,13.9 "/>
<path fill="#D1D1D2" d="M26,12.5c0,0.4,0.2,0.4,0.5,0.5l-0.1,1c-0.7,0-1.1-0.1-1.4-0.4c0,0-0.7,0.4-1.5,0.4c-0.9,0-1.5-0.6-1.5-1.6
	c0-1,0.7-1.5,1.6-1.5l1.2-0.1v-0.3c0-0.4-0.2-0.6-0.6-0.6c-0.9,0-1.9,0.1-1.9,0.1l0-0.9c0,0,1.3-0.2,2-0.2c1.1,0,1.7,0.5,1.7,1.7
	V12.5z M23.8,11.7c-0.4,0-0.6,0.3-0.6,0.7c0,0.4,0.2,0.7,0.5,0.7c0.5,0,1.1-0.2,1.1-0.2v-1.2L23.8,11.7z"/>
<path fill="#D1D1D2" d="M31.6,8.9v5h-1.1v-0.3c0,0-0.7,0.4-1.3,0.4c-1.3,0-1.7-0.8-1.7-2.5V8.9h1.1v2.6c0,1,0.1,1.5,0.8,1.5
	c0.4,0,1-0.3,1-0.3V8.9H31.6z"/>
<path fill="#D1D1D2" d="M33.2,13.9v-5h1.1v0.3c0,0,0.7-0.4,1.3-0.4c1.3,0,1.7,0.9,1.7,2.5v2.6h-1.1v-2.6c0-0.9-0.1-1.5-0.8-1.5
	c-0.4,0-1.1,0.3-1.1,0.3v3.8H33.2z"/>
<path fill="#D1D1D2" d="M42.1,8.9l0,1c0,0-0.7-0.1-1.1-0.1c-0.9,0-1.2,0.4-1.2,1.5c0,1.1,0.3,1.6,1.2,1.6c0.4,0,1.1-0.1,1.1-0.1l0,1
	c0,0-0.8,0.1-1.5,0.1c-1.4,0-2-0.9-2-2.7c0-1.7,0.7-2.6,2.1-2.6C41.3,8.8,42.1,8.9,42.1,8.9"/>
<path fill="#D1D1D2" d="M43.2,13.9V6.8h1.1V9c0,0,0.8-0.3,1.3-0.3c1.3,0,1.7,0.9,1.7,2.5v2.6h-1.2v-2.6c0-0.8-0.1-1.5-0.8-1.5
	c-0.4,0-1.1,0.2-1.1,0.2v3.9H43.2z"/>
<path fill="#D1D1D2" d="M50.1,11.8v2.1h-1.2V6.9h2.4c1.5,0,2.4,0.8,2.4,2.4c0,1.6-0.9,2.5-2.4,2.5H50.1z M51.3,10.7
	c0.8,0,1.2-0.6,1.2-1.4c0-0.8-0.4-1.3-1.2-1.3h-1.2v2.7H51.3z"/>
<path fill="#D1D1D2" d="M58.5,12.5c0,0.4,0.2,0.4,0.5,0.5l-0.1,1c-0.7,0-1.1-0.1-1.4-0.4c0,0-0.7,0.4-1.5,0.4
	c-0.9,0-1.5-0.6-1.5-1.6c0-1,0.7-1.5,1.6-1.5l1.2-0.1v-0.3c0-0.4-0.2-0.6-0.6-0.6c-0.9,0-1.9,0.1-1.9,0.1l0-0.9c0,0,1.3-0.2,2-0.2
	c1.1,0,1.7,0.5,1.7,1.7V12.5z M56.3,11.7c-0.4,0-0.6,0.3-0.6,0.7c0,0.4,0.2,0.7,0.5,0.7c0.5,0,1.1-0.2,1.1-0.2v-1.2L56.3,11.7z"/>
<path fill="#D1D1D2" d="M64,13.9h-1.2v-0.2c0,0-0.6,0.3-1.2,0.3c-1.4,0-1.9-1-1.9-2.6c0-1.7,0.7-2.6,2-2.6c0.4,0,1,0.1,1,0.1V6.8H64
	V13.9z M62.8,12.7V9.9c0,0-0.5-0.1-0.9-0.1c-0.6,0-1,0.6-1,1.6c0,1,0.2,1.6,0.9,1.6C62.3,13,62.8,12.7,62.8,12.7"/>
<polygon fill="#D1D1D2" points="67.9,13.9 67.9,6.9 69.1,6.9 69.1,12.8 71.7,12.8 71.7,13.9 "/>
<path fill="#D1D1D2" d="M76.5,12.5c0,0.4,0.2,0.4,0.5,0.5l-0.1,1c-0.7,0-1.1-0.1-1.4-0.4c0,0-0.7,0.4-1.5,0.4
	c-0.9,0-1.5-0.6-1.5-1.6c0-1,0.7-1.5,1.6-1.5l1.2-0.1v-0.3c0-0.4-0.2-0.6-0.6-0.6c-0.9,0-1.9,0.1-1.9,0.1l0-0.9c0,0,1.3-0.2,2-0.2
	c1.1,0,1.7,0.5,1.7,1.7V12.5z M74.3,11.7c-0.4,0-0.6,0.3-0.6,0.7c0,0.4,0.2,0.7,0.5,0.7c0.5,0,1.1-0.2,1.1-0.2v-1.2L74.3,11.7z"/>
<path fill="#D1D1D2" d="M82.3,11.3c0,1.9-0.7,2.7-2.4,2.7c-0.5,0-1.8-0.1-1.8-0.1V6.8h1.1V9c0,0,0.6-0.3,1.2-0.3
	C81.7,8.8,82.3,9.7,82.3,11.3 M81.2,11.3c0-1-0.3-1.5-0.9-1.5c-0.5,0-1,0.2-1,0.2v3c0,0,0.5,0,0.7,0C81,13,81.2,12.3,81.2,11.3"/>
</svg>
